<?xml version="1.0" standalone="no"?>
<!DOCTYPE svg PUBLIC "-//W3C//DTD SVG 20010904//EN"
 "http://www.w3.org/TR/2001/REC-SVG-20010904/DTD/svg10.dtd">
<svg version="1.0" xmlns="http://www.w3.org/2000/svg"
 width="770.000000pt" height="1027.000000pt" viewBox="0 0 770.000000 1027.000000"
 preserveAspectRatio="xMidYMid meet">

<g transform="translate(0.000000,1027.000000) scale(0.100000,-0.100000)"
fill="#000000" stroke="none">
<path d="M3875 9009 c-16 -5 -54 -7 -84 -4 -34 2 -69 -2 -95 -11 -70 -27 -86
-28 -86 -9 0 18 -21 15 -72 -11 -86 -44 -187 -64 -180 -35 3 16 -8 14 -30 -6
-10 -9 -29 -18 -41 -20 -11 -2 -25 -9 -29 -16 -6 -9 -8 -9 -8 1 0 20 -51 14
-108 -13 -30 -14 -58 -23 -62 -20 -5 3 -11 1 -15 -5 -3 -5 -16 -10 -28 -10
-13 0 -32 -7 -44 -15 -20 -14 -23 -14 -31 0 -7 14 -13 14 -55 -4 -25 -11 -49
-16 -52 -11 -3 5 -13 6 -22 3 -11 -4 -14 -3 -9 5 14 23 -11 12 -39 -18 -16
-16 -35 -30 -43 -30 -45 0 -164 -97 -258 -210 -20 -25 -40 -44 -44 -43 -4 1
-7 -3 -6 -10 0 -7 -3 -14 -9 -16 -5 -3 -18 -15 -29 -28 -10 -13 -21 -21 -24
-18 -3 3 -12 -9 -20 -27 -9 -20 -16 -28 -19 -20 -4 10 -11 5 -24 -14 -11 -17
-14 -31 -8 -34 5 -4 1 -16 -11 -30 -13 -15 -20 -18 -20 -9 0 24 -20 -13 -20
-38 0 -14 -22 -45 -55 -80 -64 -65 -118 -143 -146 -211 -11 -26 -25 -58 -31
-72 -6 -14 -11 -28 -10 -32 3 -12 -13 -9 -26 4 -19 19 -15 -6 8 -46 14 -23 17
-36 10 -41 -6 -4 -10 -3 -9 2 4 23 -4 21 -28 -9 -49 -58 -56 -76 -33 -88 21
-11 19 -16 -51 -110 -37 -50 -45 -65 -29 -55 10 6 11 4 5 -11 -12 -28 -15
-237 -3 -251 5 -7 6 -18 2 -24 -4 -8 -3 -9 5 -5 9 6 10 -20 6 -106 -6 -120 -8
-137 -25 -208 -6 -25 -14 -75 -19 -111 -5 -37 -11 -71 -15 -77 -3 -6 -9 -104
-12 -219 -9 -343 -10 -473 -4 -463 3 5 4 -28 3 -73 -2 -45 -5 -206 -8 -357 -6
-324 -5 -302 -18 -317 -6 -9 -2 -19 14 -33 13 -10 27 -19 32 -20 4 0 7 -22 7
-49 0 -39 7 -59 35 -101 19 -29 35 -58 35 -64 0 -13 33 -56 43 -56 3 0 18 -11
33 -25 14 -13 30 -22 35 -20 4 3 11 -1 16 -8 11 -18 54 -33 136 -48 37 -7 68
-16 68 -21 1 -4 2 -14 3 -20 1 -7 8 -12 16 -10 7 2 32 4 56 6 23 1 48 7 56 12
7 6 46 16 87 22 40 7 78 15 83 18 20 13 87 10 92 -3 3 -7 12 -10 21 -7 8 3 15
1 15 -6 0 -6 5 -8 13 -3 19 13 57 10 57 -4 0 -7 2 -13 4 -13 12 0 54 47 60 66
4 12 15 29 26 39 11 10 20 22 20 28 0 5 13 26 28 46 60 77 132 210 157 291 29
93 59 156 119 246 60 91 76 122 70 139 -4 9 0 15 9 15 10 0 13 8 9 25 -2 15 0
25 7 25 6 0 11 -10 11 -22 1 -22 1 -22 25 5 14 15 26 24 26 20 1 -4 2 -14 3
-20 2 -20 21 -15 21 5 0 9 7 17 15 17 8 0 15 -9 15 -19 0 -28 25 -32 26 -4 l0
23 9 -23 c6 -13 23 -28 39 -33 17 -6 39 -26 50 -45 11 -19 28 -34 36 -34 13 0
15 -7 11 -32 -5 -25 -4 -28 3 -13 8 18 10 17 16 -12 4 -18 11 -31 15 -28 4 3
10 -4 13 -15 3 -12 -1 -24 -11 -30 -16 -9 -16 -9 -1 -10 15 0 21 -14 36 -84 2
-11 9 -27 16 -35 7 -9 28 -45 46 -81 39 -77 58 -100 82 -100 12 0 16 -5 13
-15 -4 -10 0 -15 13 -15 11 0 25 -11 31 -25 6 -14 17 -25 25 -25 7 0 21 -13
30 -30 10 -16 25 -30 33 -30 8 0 14 -8 14 -17 0 -19 41 -43 72 -43 10 0 18 -4
18 -10 0 -6 34 -10 83 -10 46 0 87 -3 91 -7 6 -7 48 -11 149 -17 32 -1 31 0
10 -22 -13 -13 -14 -16 -3 -12 8 3 29 0 47 -8 18 -7 55 -12 82 -11 28 2 52 -2
54 -7 5 -15 147 -13 169 2 10 7 15 18 12 24 -9 14 15 28 48 28 15 0 29 4 32 9
9 14 54 19 92 11 26 -6 34 -5 34 6 0 8 9 14 19 14 11 0 30 4 43 9 13 5 25 8
28 8 3 0 15 5 27 11 12 7 36 14 53 16 17 2 39 11 49 20 9 9 23 16 29 16 6 0
24 12 41 26 17 14 31 23 31 20 0 -3 24 9 53 27 28 18 64 39 80 46 15 8 27 20
27 27 0 7 3 14 8 16 4 2 17 24 29 51 13 26 28 47 35 47 7 0 19 13 26 29 7 15
26 49 43 74 28 42 30 50 25 112 -5 62 -30 125 -48 125 -5 0 -5 12 -2 28 7 26
6 26 -12 10 -18 -16 -20 -16 -35 11 -9 15 -13 35 -9 46 6 16 1 23 -21 32 -16
7 -29 19 -29 28 0 9 -5 13 -10 10 -6 -4 -26 5 -45 20 -19 14 -35 23 -35 19 0
-4 -8 2 -18 13 -9 11 -32 24 -49 27 -18 4 -36 13 -40 19 -14 21 -66 43 -70 31
-3 -8 -22 -3 -56 15 -51 26 -117 32 -117 10 0 -5 5 -9 10 -9 6 0 10 -5 10 -11
0 -8 -12 -10 -34 -6 -30 5 -34 3 -28 -11 4 -12 -6 -8 -32 12 -28 21 -40 25
-46 16 -4 -7 -10 -8 -13 -3 -5 8 -28 9 -57 4 -3 -1 2 -6 10 -11 12 -8 11 -10
-7 -10 -15 0 -21 5 -17 13 5 15 -22 17 -45 3 -7 -5 -16 -5 -20 0 -3 5 -27 10
-52 10 -25 1 -61 8 -79 17 -40 20 -35 20 -54 2 -17 -17 -46 -10 -46 12 0 10
-6 13 -16 9 -9 -3 -18 -6 -20 -6 -3 0 -2 -4 1 -10 9 -15 -28 -12 -49 3 -19 14
-62 11 -72 -4 -3 -5 -20 -9 -39 -9 -18 0 -35 -5 -37 -11 -2 -5 -11 -7 -21 -4
-9 4 -15 10 -13 14 2 3 -16 6 -41 5 -25 0 -48 -6 -53 -14 -6 -10 -11 -8 -21 8
-9 14 -18 18 -28 12 -24 -12 -61 -7 -71 10 -8 12 -10 12 -10 -5 -1 -19 -1 -19
-14 -2 -14 18 -46 23 -46 7 0 -14 -28 -12 -33 3 -3 9 -7 9 -20 -2 -13 -10 -20
-11 -31 -2 -11 10 -16 9 -23 -2 -5 -9 -32 -17 -73 -20 -90 -8 -174 -26 -178
-37 -5 -15 -32 -12 -38 5 -4 8 -13 15 -20 15 -22 0 -91 38 -97 52 -4 9 -6 7
-6 -4 -1 -22 -101 -31 -117 -9 -9 12 -13 10 -26 -7 -8 -12 -18 -19 -21 -15 -4
3 -15 -1 -25 -11 -11 -9 -26 -14 -36 -10 -10 4 -16 1 -16 -7 -1 -10 -4 -8 -11
3 -7 13 -17 16 -39 11 -17 -3 -36 0 -45 7 -8 6 -18 9 -23 6 -5 -3 -26 3 -47
14 -24 12 -48 17 -69 14 -22 -4 -27 -3 -17 4 10 8 4 10 -25 10 -21 0 -56 2
-76 4 -30 4 -38 2 -38 -11 0 -12 -2 -13 -8 -3 -5 7 -16 10 -25 7 -8 -4 -24 -2
-34 3 -12 6 -30 5 -53 -3 -30 -10 -37 -9 -47 4 -11 14 -12 14 -13 1 0 -11 -12
-15 -42 -16 -66 -1 -155 -11 -167 -18 -6 -4 -11 -1 -11 6 0 10 -2 10 -9 -1 -7
-11 -9 -11 -14 0 -4 10 -6 9 -6 -3 -1 -23 -21 -24 -21 -2 0 13 -3 14 -14 5
-10 -9 -16 -9 -21 -1 -5 8 -11 8 -21 -1 -8 -6 -14 -8 -14 -3 0 4 -5 3 -12 -4
-17 -17 -38 -15 -38 3 0 8 8 15 18 16 10 0 12 3 5 6 -7 2 -29 -1 -48 -7 -20
-7 -57 -12 -83 -12 -26 -1 -50 -5 -53 -10 -3 -5 -24 -3 -47 5 -23 8 -42 11
-42 6 0 -5 -6 -9 -14 -9 -9 0 -12 -7 -9 -21 5 -18 3 -20 -16 -14 -17 5 -21 2
-21 -14 0 -25 -6 -26 -26 -6 -9 8 -12 20 -9 26 4 6 7 34 6 62 0 29 6 97 13
152 7 57 11 152 8 220 -4 131 21 448 40 493 13 31 15 38 17 69 0 12 8 29 18
38 26 27 73 99 73 114 0 17 48 96 78 128 12 13 22 26 22 29 0 13 45 64 57 64
7 0 13 9 13 19 0 22 35 51 62 51 9 0 23 12 30 26 7 15 29 35 48 45 19 10 40
23 47 28 6 6 30 20 52 32 23 12 44 25 47 30 3 5 26 19 52 30 100 45 208 102
237 124 17 12 53 30 80 40 27 9 54 20 60 25 5 4 30 14 55 21 25 7 52 19 62 26
9 8 25 13 36 11 11 -2 28 4 38 13 25 21 82 40 89 29 3 -4 -1 -11 -7 -13 -10
-4 -9 -8 2 -16 10 -7 11 -11 3 -11 -7 0 -13 -5 -13 -10 0 -15 53 0 67 19 10
14 12 14 19 -2 4 -12 12 -16 23 -11 9 4 30 8 46 10 17 1 41 5 55 8 14 4 19 4
12 0 -7 -3 -17 -14 -22 -24 -8 -15 -6 -17 10 -13 16 4 19 2 14 -11 -7 -17 11
-22 21 -6 13 21 22 9 19 -23 l-4 -34 59 0 c40 0 64 -5 74 -15 20 -20 71 -12
63 9 -3 8 -6 17 -6 19 0 2 -6 4 -12 4 -17 1 -58 35 -58 48 0 7 11 6 30 -1 17
-6 30 -14 30 -17 0 -4 14 -5 30 -2 26 4 29 2 23 -13 -4 -13 -3 -16 6 -11 6 4
9 16 6 27 -7 22 7 25 24 5 7 -8 27 -13 46 -12 19 1 35 -3 35 -9 0 -6 26 -11
62 -12 39 -2 67 -7 73 -16 5 -7 28 -14 49 -15 51 -4 74 -17 82 -47 3 -14 8
-25 11 -25 13 0 48 44 50 65 3 23 1 24 -27 19 -33 -7 -140 22 -140 37 0 5 13
9 28 9 15 0 32 4 38 9 9 9 53 15 87 13 9 -1 17 -8 17 -16 0 -8 -8 -13 -17 -11
-10 1 -12 0 -5 -2 7 -3 9 -10 6 -16 -4 -7 -4 -9 1 -5 4 4 13 1 20 -8 6 -9 25
-17 42 -18 18 -1 35 -5 39 -9 11 -10 24 -9 24 3 0 6 -5 10 -11 10 -6 0 -17 7
-26 16 -20 20 -2 44 20 26 7 -7 28 -9 48 -6 47 8 77 6 99 -6 10 -5 27 -10 38
-10 11 0 25 -7 32 -15 14 -17 30 -20 30 -5 0 6 -8 10 -17 10 -9 0 -13 3 -10 6
8 8 69 -16 80 -30 4 -7 9 -2 13 11 3 12 13 24 21 27 10 4 13 1 8 -13 -3 -10 1
-23 9 -30 12 -10 13 -9 9 8 -6 22 12 29 20 9 4 -9 8 -9 14 -3 10 13 53 17 53
6 0 -5 -8 -12 -17 -14 -16 -4 -16 -5 -1 -6 9 0 19 3 22 8 6 9 52 -4 91 -25 28
-15 115 -24 115 -12 0 6 6 8 14 5 8 -3 17 -3 20 0 11 11 134 14 141 4 3 -6 21
-11 39 -11 25 0 42 -9 67 -34 18 -19 36 -33 40 -30 4 2 17 -8 28 -22 12 -15
21 -22 21 -17 0 5 7 10 15 10 9 0 15 -10 15 -26 0 -21 2 -23 10 -11 8 12 10
12 10 -5 0 -11 7 -29 15 -39 15 -20 15 -20 15 0 0 13 5 9 17 -15 9 -19 25 -36
35 -39 10 -2 18 -9 18 -15 0 -6 3 -7 6 -4 4 4 19 -9 34 -28 15 -19 30 -32 34
-28 3 3 16 -5 28 -18 14 -14 32 -23 45 -21 26 4 63 -30 63 -58 0 -12 9 -30 20
-42 11 -12 20 -30 20 -40 0 -10 4 -18 9 -18 5 0 12 -7 15 -16 4 -11 2 -15 -7
-11 -10 4 -13 -2 -9 -19 2 -13 8 -24 13 -24 5 0 9 -5 9 -11 0 -5 -4 -7 -10 -4
-15 9 -12 -18 5 -42 9 -12 15 -35 15 -50 -1 -15 3 -48 9 -73 8 -37 7 -47 -6
-57 -11 -8 -14 -21 -10 -42 4 -19 2 -31 -6 -34 -9 -3 -9 -8 1 -20 12 -14 11
-21 -7 -46 -12 -16 -21 -41 -21 -55 0 -17 -5 -26 -15 -26 -9 0 -27 -12 -40
-26 -16 -17 -25 -22 -25 -13 0 8 -9 -1 -20 -19 -11 -18 -20 -39 -20 -46 0 -8
-11 -21 -25 -30 -32 -21 -31 -36 5 -108 17 -32 30 -65 30 -72 0 -7 7 -19 15
-26 8 -7 12 -16 9 -21 -6 -11 179 -199 196 -199 7 0 10 -7 6 -15 -3 -9 0 -15
9 -15 8 0 15 -7 15 -15 0 -8 4 -15 9 -15 5 0 12 -10 16 -22 7 -25 22 -62 36
-90 5 -10 13 -34 18 -55 6 -21 19 -65 30 -98 47 -146 64 -212 64 -247 0 -21 4
-35 8 -32 5 3 9 -14 9 -36 0 -27 8 -53 22 -73 13 -18 21 -44 21 -64 -1 -22 4
-33 13 -33 8 0 14 -4 14 -10 0 -5 -7 -7 -15 -4 -19 8 -18 -1 5 -51 10 -22 19
-32 19 -23 2 35 26 7 28 -32 3 -42 -11 -54 -22 -19 -4 11 -9 18 -11 16 -3 -2
1 -17 8 -31 8 -19 8 -30 2 -34 -34 -22 -47 -191 -18 -223 8 -9 17 -34 20 -54
4 -31 2 -36 -9 -27 -21 18 -27 4 -27 -65 0 -35 -4 -63 -10 -63 -5 0 -10 -7
-10 -15 0 -8 -5 -15 -11 -15 -5 0 -7 5 -4 10 3 6 1 10 -4 10 -6 0 -11 -7 -11
-16 0 -12 -7 -14 -32 -9 -18 4 -39 12 -45 17 -10 8 -13 6 -13 -6 0 -9 -5 -16
-11 -16 -6 0 -9 -17 -7 -42 3 -42 2 -43 -30 -46 -30 -3 -47 -22 -19 -22 6 0 4
-5 -6 -11 -25 -15 -56 -1 -69 29 -6 15 -12 21 -15 15 -3 -9 -10 -9 -27 2 -13
9 -31 13 -40 9 -18 -7 -22 -24 -5 -24 5 0 8 -4 5 -9 -3 -4 -17 -6 -31 -3 -14
2 -32 -2 -41 -9 -13 -10 -17 -10 -24 1 -6 9 -12 5 -24 -16 -8 -16 -15 -23 -16
-15 0 19 -40 -16 -40 -36 0 -9 -13 -13 -40 -13 -39 0 -39 -1 -38 -35 1 -37
-48 -145 -67 -145 -15 0 -65 -49 -65 -64 0 -14 -70 -56 -94 -56 -9 0 -16 -5
-16 -11 0 -6 -9 -8 -21 -4 -14 5 -25 1 -34 -11 -11 -15 -17 -16 -38 -7 -15 7
-43 10 -63 7 -30 -3 -40 0 -52 17 -13 18 -17 20 -26 8 -6 -8 -23 -20 -38 -28
-16 -8 -28 -18 -28 -23 0 -4 -4 -8 -10 -8 -5 0 -10 7 -10 15 0 20 -46 20 -54
0 -3 -9 -19 -15 -41 -15 -25 0 -35 -4 -35 -16 0 -12 -7 -14 -32 -9 -42 9 -68
23 -68 36 0 6 -5 7 -11 4 -6 -4 -17 2 -25 14 -18 25 -54 28 -54 5 0 -13 -8
-14 -47 -8 -27 3 -52 10 -57 15 -6 5 -20 9 -33 9 -16 0 -23 6 -23 20 0 11 -6
20 -14 20 -15 0 -26 21 -26 50 0 14 -9 20 -32 22 -30 3 -33 6 -30 31 2 20 -6
38 -28 63 -16 19 -30 44 -30 55 0 11 -4 17 -10 14 -6 -4 -10 13 -10 44 0 41
-4 52 -25 68 -14 10 -27 28 -28 41 -1 12 -4 22 -8 22 -4 0 -9 9 -12 20 -3 12
-14 20 -26 20 -14 0 -21 6 -21 18 0 38 -102 104 -131 86 -14 -9 1 -56 32 -101
39 -55 69 -122 69 -153 0 -34 -37 -93 -55 -86 -7 2 -15 0 -17 -5 -2 -6 -37
-12 -78 -13 -70 -3 -77 -2 -108 26 -18 15 -37 26 -43 23 -5 -4 -12 1 -15 10
-4 10 -13 13 -25 10 -13 -4 -19 -1 -19 9 0 9 -8 16 -18 16 -10 0 -22 4 -28 9
-12 12 -157 -11 -209 -34 -22 -10 -58 -26 -80 -36 -22 -11 -56 -18 -76 -17
-20 0 -41 -2 -47 -6 -11 -7 -173 -8 -250 -2 -26 2 -52 12 -66 25 -12 11 -26
21 -30 21 -5 0 -22 12 -39 26 l-31 26 -9 -23 c-31 -78 -34 -83 -46 -63 -9 17
-10 17 -11 2 0 -20 -19 -25 -21 -5 -1 6 -5 1 -9 -13 -7 -21 -8 -19 -9 17 -1
57 30 136 76 192 44 53 56 75 83 154 22 65 18 85 -16 93 -30 8 -44 -2 -44 -31
0 -13 -4 -27 -10 -30 -5 -3 -10 0 -10 7 0 7 -7 0 -15 -16 -8 -15 -15 -34 -15
-41 0 -8 -6 -26 -14 -42 -40 -83 -46 -101 -41 -118 6 -16 5 -17 -4 -5 -8 12
-11 11 -17 -5 -4 -11 -13 -24 -21 -28 -8 -5 -11 -17 -7 -33 5 -18 2 -24 -10
-24 -10 0 -16 -9 -16 -22 0 -17 -3 -19 -9 -9 -7 11 -12 9 -21 -10 -7 -13 -19
-28 -27 -32 -7 -5 -25 -26 -39 -48 -21 -33 -29 -39 -47 -33 -12 4 -23 10 -25
14 -4 12 -42 -1 -43 -14 -1 -6 0 -21 0 -33 2 -14 -5 -24 -18 -28 -12 -3 -21
-15 -21 -26 0 -14 -7 -19 -30 -19 -25 0 -30 4 -30 24 0 14 -4 28 -10 31 -5 3
-10 -3 -10 -15 0 -12 -4 -18 -11 -15 -6 4 -8 13 -5 21 4 10 -2 14 -19 14 -17
0 -23 -4 -19 -14 3 -7 -1 -16 -10 -19 -8 -3 -17 1 -20 10 -4 8 -12 13 -20 10
-10 -4 -12 1 -9 16 4 21 4 21 -11 3 -15 -19 -16 -19 -23 1 -8 20 -8 20 -67 2
-32 -10 -62 -16 -67 -13 -5 3 -18 0 -29 -6 -15 -8 -20 -8 -20 2 0 9 -3 9 -12
0 -16 -16 -28 -15 -28 3 0 9 -11 21 -25 27 -14 6 -25 15 -25 20 0 4 -7 8 -15
8 -8 0 -15 5 -15 11 0 6 -12 20 -26 31 -19 16 -24 27 -20 44 4 15 2 24 -5 24
-6 0 -9 6 -6 13 2 6 9 11 16 10 12 -3 27 44 17 54 -3 4 -6 -3 -6 -15 0 -12 -4
-22 -8 -22 -10 0 -8 107 1 117 4 3 7 -2 7 -13 0 -15 2 -16 9 -5 6 9 6 22 0 34
-7 12 -7 22 -1 30 7 8 6 18 -2 30 -16 21 -30 23 -23 2 8 -18 -5 -26 -23 -15
-11 7 -11 11 -1 24 18 22 5 39 -20 26 -10 -6 -19 -7 -19 -2 0 5 -7 9 -15 9
-13 0 -15 -19 -14 -116 0 -64 4 -168 8 -231 5 -67 4 -137 -2 -168 -8 -45 -7
-55 8 -72 9 -10 14 -23 11 -28 -3 -5 -6 -26 -7 -48 -1 -21 -6 -47 -11 -56 -5
-11 -5 -18 1 -18 5 0 12 6 15 13 8 17 -1 -104 -9 -125 -5 -14 -2 -16 14 -13
24 4 27 -9 11 -51 -7 -18 -7 -29 -1 -33 6 -4 6 -12 1 -21 -14 -22 -12 -30 7
-23 12 5 15 2 10 -10 -3 -8 -9 -33 -12 -54 -5 -30 -4 -35 5 -23 10 12 11 11 6
-9 -7 -35 5 -116 15 -99 7 10 9 10 9 -2 0 -8 -5 -22 -10 -30 -9 -13 -10 -13
-10 0 0 11 -2 12 -8 2 -8 -12 -76 -23 -249 -42 -46 -5 -86 -11 -90 -13 -5 -3
-35 -8 -68 -11 -84 -9 -273 -52 -380 -87 -49 -16 -102 -33 -116 -38 -15 -5
-33 -5 -40 0 -8 5 -35 9 -61 9 -47 0 -48 -1 -48 -31 0 -24 4 -30 15 -25 8 3
15 1 15 -4 0 -8 -170 -110 -184 -110 -22 0 -145 -99 -210 -170 -67 -73 -270
-270 -278 -270 -5 0 -8 -612 -8 -1360 l0 -1360 3850 0 3850 0 0 1003 0 1003
-27 11 c-16 7 -50 25 -78 42 -27 17 -57 34 -65 38 -8 4 -45 26 -83 50 -37 24
-71 43 -75 43 -5 0 -41 23 -81 50 -40 28 -75 50 -77 50 -7 0 -87 53 -102 67
-7 7 -20 13 -28 13 -8 0 -14 5 -14 10 0 6 -5 10 -11 10 -6 0 -28 13 -49 30
-21 16 -40 30 -43 30 -3 0 -43 25 -89 56 -124 85 -299 194 -309 194 -5 0 -9 5
-9 10 0 6 -5 10 -11 10 -6 0 -37 17 -68 38 -31 20 -82 50 -114 65 -32 16 -75
43 -95 61 -51 45 -103 84 -199 150 -125 85 -193 147 -193 174 0 14 2 14 9 3 6
-9 8 6 6 42 -2 31 -7 62 -11 68 -5 8 -3 9 6 4 10 -6 12 0 7 29 -3 22 -2 34 4
31 5 -4 9 -13 9 -21 0 -8 5 -14 11 -14 8 0 10 15 6 48 -3 26 -3 40 1 32 4 -8
14 -16 23 -16 14 -1 15 4 9 27 -5 17 -5 31 1 34 5 4 9 15 9 27 0 14 5 18 15
14 16 -6 21 9 6 18 -12 8 4 77 20 87 10 6 10 13 1 34 -16 35 -15 43 3 19 13
-18 14 -17 6 11 -9 35 -3 145 10 161 5 6 9 47 10 91 l1 81 45 -20 c38 -17 51
-18 95 -8 52 11 115 59 88 68 -7 3 -15 -1 -19 -7 -6 -10 -54 42 -119 130 -28
37 -35 129 -11 129 4 0 14 -6 21 -13 7 -8 20 -12 30 -9 10 2 25 -1 33 -8 12
-10 16 -8 25 15 5 14 10 33 10 42 0 10 6 13 16 9 9 -3 20 -6 24 -6 12 0 80
-68 80 -80 0 -23 18 -6 57 56 53 83 75 152 133 409 18 77 46 185 64 240 28 92
31 111 30 230 -2 180 -43 351 -90 369 -10 4 -20 3 -23 -2 -3 -5 -19 -12 -35
-16 -22 -5 -116 -75 -156 -116 -3 -3 -22 -13 -42 -23 -21 -9 -54 -25 -74 -34
-35 -17 -37 -17 -51 2 -10 14 -13 35 -9 65 7 67 29 154 41 162 5 4 0 8 -12 8
-19 0 -21 4 -16 38 3 20 12 47 19 59 14 22 16 55 17 216 0 48 4 87 7 87 17 0
-12 425 -31 463 -7 11 -6 17 1 17 6 0 8 4 5 10 -3 5 -8 29 -11 52 -3 24 -9 58
-14 75 -5 19 -5 35 0 38 5 3 7 22 4 43 -3 20 -7 57 -8 80 -2 24 -9 48 -17 52
-11 7 -11 10 3 15 14 6 16 18 11 83 -3 42 -9 85 -14 94 -5 9 -9 27 -9 40 0 13
-4 28 -10 34 -5 5 -12 39 -14 74 -3 36 -13 91 -24 122 -10 32 -15 55 -10 52
21 -13 -6 53 -30 73 -25 21 -25 22 -4 16 26 -6 28 4 7 34 -8 11 -17 42 -20 69
-4 26 -12 59 -20 74 -8 15 -12 30 -9 33 4 3 -1 16 -10 28 -8 13 -13 32 -10 44
4 16 0 24 -14 27 -15 4 -19 13 -16 34 3 29 -19 64 -40 64 -7 0 -13 12 -14 26
-2 24 0 25 15 13 15 -13 15 -12 4 9 -6 12 -16 22 -21 22 -5 0 -7 6 -4 14 3 8
-2 28 -11 45 -15 31 -15 31 10 31 l26 0 -32 40 c-19 23 -39 38 -46 35 -8 -2
-13 1 -11 8 1 6 -9 24 -22 38 -25 26 -31 34 -90 114 -38 51 -42 57 -59 78 -12
16 -12 17 5 10 10 -4 -1 11 -24 32 -24 21 -41 44 -38 51 3 7 -2 18 -10 24 -8
7 -14 9 -14 5 0 -4 -11 4 -25 19 -15 16 -32 25 -40 22 -8 -3 -17 -1 -20 4 -4
6 11 11 32 11 l38 2 -38 6 c-21 3 -37 10 -36 15 1 13 -29 28 -41 21 -6 -3 -10
-1 -10 5 0 6 -8 13 -17 17 -26 9 -53 34 -53 49 0 8 6 11 15 8 26 -10 16 10
-15 31 -16 11 -30 23 -30 27 0 3 -9 4 -20 1 -11 -3 -20 0 -20 6 0 6 7 11 15
11 12 0 12 5 4 24 -13 27 -50 38 -137 41 -30 1 -57 6 -60 11 -4 5 -16 10 -27
10 -23 2 -127 19 -170 29 -37 8 -57 24 -51 42 3 8 -2 13 -13 13 -14 0 -18 -5
-14 -20 4 -13 0 -20 -10 -20 -8 0 -14 8 -13 17 1 12 -11 19 -39 25 -68 15
-115 31 -115 40 0 4 -15 8 -34 8 -19 0 -38 5 -41 10 -3 6 -27 10 -52 10 -37 0
-46 4 -50 20 -4 16 -8 18 -19 9 -9 -8 -22 -8 -42 -1 -17 6 -35 6 -44 1 -11 -6
-21 -5 -30 4 -7 7 -23 12 -35 11 -13 -1 -23 2 -23 7 0 4 -16 3 -36 -2 -55 -16
-88 -16 -99 -2 -8 11 -18 11 -55 0 -51 -15 -80 -12 -80 8 0 11 -13 14 -52 11
-29 -2 -57 0 -63 4 -5 4 -23 3 -40 -1z m415 -69 c0 -5 -10 -10 -22 -9 -22 0
-22 1 -3 9 11 5 21 9 23 9 1 1 2 -3 2 -9z m310 -36 c0 -7 -8 -10 -20 -7 -11 3
-20 9 -20 14 0 4 9 7 20 6 11 -1 20 -7 20 -13z m74 -40 c5 -14 4 -15 -9 -4
-17 14 -19 20 -6 20 5 0 12 -7 15 -16z m-69 -15 c10 -15 2 -19 -24 -12 -17 4
-19 8 -9 14 18 12 26 11 33 -2z m129 -10 c-6 -11 -66 -39 -81 -39 -16 1 32 30
49 30 10 0 18 5 18 10 0 6 5 10 11 10 5 0 7 -5 3 -11z m-184 -40 c0 -5 -4 -9
-10 -9 -5 0 -10 7 -10 16 0 8 5 12 10 9 6 -3 10 -10 10 -16z m-41 7 c-11 -9
-69 -14 -69 -6 0 6 17 10 37 10 20 0 34 -2 32 -4z m114 -8 c-6 -11 -41 -10
-48 2 -3 5 7 8 24 7 16 -1 27 -5 24 -9z m145 -28 c-15 -24 -24 -25 -31 -6 -6
14 6 24 31 25 10 1 10 -3 0 -19z m-952 -5 c-10 -8 -24 -11 -30 -8 -6 4 0 10
14 14 36 10 37 10 16 -6z m-156 -25 c0 -4 -6 -10 -13 -13 -7 -3 -13 3 -13 13
0 10 6 16 13 13 7 -3 13 -9 13 -13z m1070 -1 c0 -6 -4 -7 -10 -4 -5 3 -10 11
-10 16 0 6 5 7 10 4 6 -3 10 -11 10 -16z m70 11 c0 -5 -7 -7 -15 -4 -8 4 -15
8 -15 10 0 2 7 4 15 4 8 0 15 -4 15 -10z m390 -21 c0 -14 -17 -10 -23 5 -4 10
-1 13 9 9 7 -3 14 -9 14 -14z m50 -29 c24 -8 24 -8 -7 -9 -17 -1 -35 4 -38 9
-7 11 9 11 45 0z m-2326 -105 c-10 -16 -20 -23 -22 -16 -4 12 28 55 35 47 3
-2 -3 -17 -13 -31z m919 -20 c-3 -9 -8 -14 -10 -11 -3 3 -2 9 2 15 9 16 15 13
8 -4z m-89 -19 c-3 -7 -11 -13 -19 -13 -18 0 -19 9 -3 25 14 14 29 6 22 -12z
m146 20 c0 -3 -4 -8 -10 -11 -5 -3 -10 -1 -10 4 0 6 5 11 10 11 6 0 10 -2 10
-4z m-195 -36 c-3 -5 -14 -10 -23 -9 -14 0 -13 2 3 9 27 11 27 11 20 0z m59
-25 c-4 -8 -11 -15 -16 -15 -6 0 -5 6 2 15 7 8 14 15 16 15 2 0 1 -7 -2 -15z
m235 -9 l23 -13 -32 -7 c-56 -11 -69 -8 -63 14 6 23 36 26 72 6z m51 -20 c0
-3 -4 -8 -10 -11 -5 -3 -10 -1 -10 4 0 6 5 11 10 11 6 0 10 -2 10 -4z m-60
-56 c-8 -5 -22 -9 -30 -9 -10 0 -8 3 5 9 27 12 43 12 25 0z m-80 -84 c0 -3 -7
-12 -16 -20 -23 -23 -40 -19 -19 4 16 18 35 26 35 16z m116 -41 c-11 -8 -27
-15 -35 -15 -13 0 -14 -2 -2 -9 8 -5 21 -7 30 -4 13 4 13 3 2 -5 -7 -5 -11
-14 -7 -20 3 -5 -5 -12 -19 -14 -19 -4 -25 -1 -25 12 0 13 -7 16 -32 12 -44
-6 -32 5 39 34 67 27 75 29 49 9z m1389 -35 c3 -5 1 -10 -4 -10 -6 0 -11 5
-11 10 0 6 2 10 4 10 3 0 8 -4 11 -10z m-1275 -100 c-19 -13 -30 -13 -30 0 0
6 10 10 23 10 18 0 19 -2 7 -10z m1320 0 c0 -5 -2 -10 -4 -10 -3 0 -8 5 -11
10 -3 6 -1 10 4 10 6 0 11 -4 11 -10z m-1275 -40 c-3 -5 -12 -7 -20 -4 -11 5
-12 10 -2 25 10 16 13 16 20 4 4 -8 5 -19 2 -25z m-472 -107 c-7 -2 -19 -2
-25 0 -7 3 -2 5 12 5 14 0 19 -2 13 -5z m-3 -33 c0 -5 -2 -10 -4 -10 -3 0 -8
5 -11 10 -3 6 -1 10 4 10 6 0 11 -4 11 -10z m2180 -41 c0 -6 -4 -7 -10 -4 -5
3 -10 11 -10 16 0 6 5 7 10 4 6 -3 10 -11 10 -16z m-2146 -4 c16 -12 17 -15 4
-15 -8 0 -21 7 -28 15 -16 19 -1 19 24 0z m96 -65 c21 0 41 -4 45 -9 3 -5 19
-12 35 -16 17 -4 30 -11 30 -16 0 -10 -33 -12 -43 -2 -4 3 -17 7 -30 9 -43 4
-99 33 -91 46 6 9 9 9 12 0 2 -7 21 -12 42 -12z m-102 -7 c-2 -10 3 -17 10
-15 18 3 15 -25 -3 -32 -9 -3 -18 1 -21 9 -4 8 -12 15 -19 15 -8 0 -11 8 -8
20 7 25 45 28 41 3z m92 -34 c0 -5 -11 -9 -25 -9 -33 0 -33 15 0 16 14 1 25
-2 25 -7z m-1820 -69 c0 -5 -4 -10 -10 -10 -5 0 -10 5 -10 10 0 6 5 10 10 10
6 0 10 -4 10 -10z m3050 -27 c0 -14 -26 -18 -34 -4 -7 11 0 18 19 18 8 0 15
-6 15 -14z m364 -299 c3 -8 2 -12 -4 -9 -6 3 -10 10 -10 16 0 14 7 11 14 -7z
m691 -794 c3 -5 1 -10 -4 -10 -6 0 -11 5 -11 10 0 6 2 10 4 10 3 0 8 -4 11
-10z m75 -283 c0 -20 -24 1 -25 23 -2 21 -1 22 12 5 7 -11 13 -23 13 -28z
m-4240 -372 c-7 -9 -15 -13 -17 -11 -7 7 7 26 19 26 6 0 6 -6 -2 -15z m3047
-1 c-3 -3 -12 -4 -19 -1 -8 3 -5 6 6 6 11 1 17 -2 13 -5z m-2457 -424 c0 -5
-4 -10 -10 -10 -5 0 -10 5 -10 10 0 6 5 10 10 10 6 0 10 -4 10 -10z m2060 6
c0 -3 -4 -8 -10 -11 -5 -3 -10 -1 -10 4 0 6 5 11 10 11 6 0 10 -2 10 -4z
m-240 -69 c0 -7 14 -18 30 -24 26 -10 30 -16 30 -47 0 -31 -3 -36 -22 -35 -32
2 -70 12 -92 25 -19 11 -19 13 -2 29 9 10 15 24 12 32 -4 8 -4 19 0 24 8 14
44 11 44 -4z m1658 -49 c6 -18 13 -67 15 -108 3 -41 3 -64 0 -50 -3 14 -9 30
-15 37 -5 7 -7 21 -4 31 4 11 3 30 -2 43 -17 45 -22 79 -13 79 5 0 14 -15 19
-32z m-3638 -50 c0 -5 -4 -8 -8 -8 -15 0 -32 24 -32 45 0 19 2 18 20 -5 11
-14 20 -28 20 -32z m3720 -10 c0 -5 -7 -3 -15 6 -8 8 -15 18 -15 22 0 3 7 1
15 -6 8 -7 15 -17 15 -22z m-9 -72 c13 -14 11 -49 -2 -40 -8 5 -10 -4 -7 -29
2 -20 1 -34 -3 -31 -14 8 -21 65 -13 107 5 27 9 35 12 22 2 -11 8 -24 13 -29z
m-31 -283 c0 -7 -2 -13 -5 -13 -6 0 -35 56 -35 67 1 13 40 -41 40 -54z m-1813
-19 c-3 -3 -12 -4 -19 -1 -8 3 -5 6 6 6 11 1 17 -2 13 -5z m1793 -16 c0 -19
-2 -20 -10 -8 -13 19 -13 30 0 30 6 0 10 -10 10 -22z m44 -13 c3 -8 1 -15 -4
-15 -6 0 -10 7 -10 15 0 8 2 15 4 15 2 0 6 -7 10 -15z m-1434 -30 c0 -8 -9
-15 -20 -15 -22 0 -27 15 -7 23 21 9 27 7 27 -8z m1400 -446 c0 -6 -4 -7 -10
-4 -5 3 -10 11 -10 16 0 6 5 7 10 4 6 -3 10 -11 10 -16z m196 -25 c14 -21 14
-24 -6 -44 -17 -17 -21 -18 -26 -5 -4 9 -19 15 -36 15 -27 0 -30 3 -24 23 3
12 6 25 6 29 0 9 31 15 53 10 10 -3 25 -15 33 -28z m-856 -145 c0 -11 -8 -28
-17 -37 -16 -16 -16 -16 -10 1 4 10 7 30 7 43 0 14 4 22 10 19 6 -3 10 -15 10
-26z m-2647 -103 c26 -19 28 -25 22 -65 -6 -41 -29 -125 -56 -211 -13 -40 -49
-94 -57 -86 -3 3 -11 -2 -19 -12 -8 -9 -12 -12 -9 -5 4 6 2 14 -4 18 -6 3 -13
-2 -17 -12 -3 -10 -15 -27 -26 -38 -17 -16 -20 -16 -14 -2 3 9 2 19 -3 22 -4
3 -10 1 -12 -5 -1 -5 -15 -11 -30 -12 -21 -2 -28 -8 -28 -23 0 -11 -8 -29 -17
-40 l-16 -20 8 20 c25 65 10 91 -18 33 -9 -18 -18 -32 -21 -30 -16 6 -36 1
-36 -11 0 -7 -10 -18 -21 -25 -17 -11 -24 -11 -33 -2 -8 9 -8 14 2 17 6 3 12
13 12 24 0 27 44 112 91 176 22 29 39 59 39 68 0 9 4 14 8 11 5 -3 15 6 22 19
7 14 17 25 21 25 4 0 18 21 31 47 13 25 30 48 38 51 19 5 65 62 51 62 -6 0 -8
7 -5 15 4 8 9 13 13 11 4 -3 13 -1 21 4 15 9 20 8 63 -24z m1406 -7 c11 -10
31 -21 45 -25 19 -4 26 -13 26 -29 0 -27 16 -41 24 -23 3 7 3 1 0 -13 -3 -15
0 -32 8 -40 7 -8 19 -25 26 -39 7 -14 22 -41 35 -62 80 -132 153 -268 158
-295 7 -42 3 -42 -15 0 l-14 32 -1 -32 c-1 -44 -19 -51 -35 -13 -11 26 -14 29
-20 15 -3 -10 -1 -24 5 -32 7 -7 9 -16 6 -20 -4 -3 -14 11 -24 33 -12 29 -18
34 -21 21 -4 -18 -5 -18 -23 -1 -10 9 -19 21 -19 26 0 10 -25 38 -34 38 -2 0
-6 -10 -9 -22 -3 -21 -5 -20 -16 10 -7 17 -17 32 -22 32 -13 0 -11 -14 3 -28
10 -9 8 -16 -5 -29 -16 -16 -17 -16 -17 4 0 12 -4 25 -10 28 -6 3 -10 -4 -10
-17 0 -20 -2 -19 -16 10 -16 32 -34 43 -34 20 0 -9 -3 -9 -12 0 -17 17 -28 15
-29 -5 0 -10 -5 -3 -10 15 -9 29 -29 45 -29 22 0 -19 -27 -10 -37 13 -16 31
-23 68 -12 62 8 -5 1 54 -7 64 -2 2 1 10 7 17 6 7 13 69 16 136 4 94 9 126 21
135 21 18 78 13 101 -8z m-2472 -81 c-3 -7 -5 -2 -5 12 0 14 2 19 5 13 2 -7 2
-19 0 -25z m994 -321 c-6 -15 -15 -27 -21 -27 -12 0 -13 5 -1 28 5 9 13 26 17
37 6 16 8 17 11 4 2 -8 -1 -28 -6 -42z m1489 -77 c0 -5 -2 -10 -4 -10 -3 0 -8
5 -11 10 -3 6 -1 10 4 10 6 0 11 -4 11 -10z m247 -152 c-3 -8 -6 -5 -6 6 -1
11 2 17 5 13 3 -3 4 -12 1 -19z m-1716 -1481 c-10 -9 -11 -8 -5 6 3 10 9 15
12 12 3 -3 0 -11 -7 -18z m4589 -1837 c0 -5 -4 -10 -10 -10 -5 0 -10 5 -10 10
0 6 5 10 10 10 6 0 10 -4 10 -10z"/>
<path d="M6061 5314 c0 -11 3 -14 6 -6 3 7 2 16 -1 19 -3 4 -6 -2 -5 -13z"/>
<path d="M2376 8495 c-9 -26 -7 -32 5 -12 6 10 9 21 6 23 -2 3 -7 -2 -11 -11z"/>
<path d="M3610 7752 c0 -4 4 -13 9 -20 7 -11 9 -11 14 1 3 9 -1 18 -9 21 -8 3
-14 2 -14 -2z"/>
<path d="M5415 6470 c-16 -7 -17 -9 -3 -9 9 -1 20 4 23 9 7 11 7 11 -20 0z"/>
<path d="M1940 6040 c0 -5 6 -10 14 -10 8 0 18 5 21 10 3 6 -3 10 -14 10 -12
0 -21 -4 -21 -10z"/>
<path d="M1711 5437 c0 -12 4 -31 9 -42 8 -19 9 -19 9 2 1 12 4 28 7 36 3 8
-2 17 -10 20 -12 5 -16 0 -15 -16z"/>
<path d="M4264 4957 c3 -10 6 -25 6 -33 0 -8 5 -14 10 -14 15 0 12 24 -6 46
-14 17 -15 17 -10 1z"/>
<path d="M5746 4661 c-4 -7 -5 -15 -2 -18 9 -9 19 4 14 18 -4 11 -6 11 -12 0z"/>
<path d="M5455 4581 c-4 -8 -1 -19 8 -28 19 -20 30 -1 13 22 -10 14 -15 15
-21 6z"/>
<path d="M5330 4460 c0 -5 5 -10 11 -10 5 0 7 5 4 10 -3 6 -8 10 -11 10 -2 0
-4 -4 -4 -10z"/>
<path d="M5026 4181 c-4 -7 -5 -15 -2 -18 9 -9 19 4 14 18 -4 11 -6 11 -12 0z"/>
<path d="M1671 3834 c0 -11 3 -14 6 -6 3 7 2 16 -1 19 -3 4 -6 -2 -5 -13z"/>
<path d="M6838 3583 c7 -3 16 -2 19 1 4 3 -2 6 -13 5 -11 0 -14 -3 -6 -6z"/>
<path d="M818 3453 c7 -3 16 -2 19 1 4 3 -2 6 -13 5 -11 0 -14 -3 -6 -6z"/>
<path d="M6460 2880 c0 -5 5 -10 10 -10 6 0 10 5 10 10 0 6 -4 10 -10 10 -5 0
-10 -4 -10 -10z"/>
<path d="M7108 2603 c7 -3 16 -2 19 1 4 3 -2 6 -13 5 -11 0 -14 -3 -6 -6z"/>
<path d="M7210 2530 c20 -13 33 -13 25 0 -3 6 -14 10 -23 10 -15 0 -15 -2 -2
-10z"/>
</g>
</svg>
